<svg version="1.1" xmlns="http://www.w3.org/2000/svg" xmlns:xlink="http://www.w3.org/1999/xlink" width="169.67629" height="90.10658" viewBox="0,0,169.67629,90.10658"><defs><linearGradient x1="128.51814" y1="330.43071" x2="248.5176" y2="330.43071" gradientUnits="userSpaceOnUse" id="color-1"><stop offset="0" stop-color="#000000"/><stop offset="1" stop-color="#00ff65"/></linearGradient><linearGradient x1="133.0205" y1="330.43071" x2="244.01372" y2="330.43071" gradientUnits="userSpaceOnUse" id="color-2"><stop offset="0" stop-color="#ff0000"/><stop offset="1" stop-color="#00ff65"/></linearGradient></defs><g transform="translate(-78.84173,-266.46745)"><g stroke-miterlimit="10"><path d="M248.51802,330.43003c0,14.416 -11.729,26.144 -26.144,26.144h-67.713c-14.415,0 -26.143,-11.727 -26.143,-26.144c0,-14.415 11.727,-26.143 26.143,-26.143h67.713c14.415,0 26.144,11.728 26.144,26.143z" fill="url(#color-1)" stroke="none" stroke-width="1" stroke-linecap="butt"/><path d="M244.01401,330.43003c0,11.952 -9.688,21.641 -21.64,21.641h-67.713c-11.952,0 -21.641,-9.689 -21.641,-21.641v0c0,-4.96937 1.67522,-9.54764 4.49179,-13.20086c3.95709,-5.13252 10.16699,-8.43914 17.14921,-8.43914h67.713c11.952,0 21.64,9.689 21.64,21.64z" fill="url(#color-2)" stroke="none" stroke-width="1" stroke-linecap="butt"/><text transform="translate(136.42505,322.70153) scale(0.28219,0.25998)" font-size="40" xml:space="preserve" fill="#000000" stroke="#7e0000" stroke-width="1" stroke-linecap="butt" font-family="Sans Serif" font-weight="normal" text-anchor="start"><tspan x="0" dy="0">автокликер(25000)</tspan></text><text transform="translate(148.09213,343.56134) scale(0.41194,0.41477)" font-size="40" xml:space="preserve" fill="#000000" stroke="none" stroke-width="1" stroke-linecap="butt" font-family="Sans Serif" font-weight="normal" text-anchor="start"><tspan x="0" dy="0">+25(в сек)</tspan></text><path d="M206.10911,322.36726l34.32058,-10.4157" fill="none" stroke="none" stroke-width="0" stroke-linecap="round"/><path d="M92.04865,288.0467v0" fill="none" stroke="#7e0000" stroke-width="0.5" stroke-linecap="round"/><text transform="translate(79.09173,288.21745) scale(0.5,0.5)" font-size="40" xml:space="preserve" fill="#0059ff" stroke="none" stroke-width="1" stroke-linecap="butt" font-family="Sans Serif" font-weight="normal" text-anchor="start"><tspan x="0" dy="0"> </tspan></text></g></g></svg>