<svg version="1.1" xmlns="http://www.w3.org/2000/svg" xmlns:xlink="http://www.w3.org/1999/xlink" width="124.74779" height="32.07694" viewBox="0,0,124.74779,32.07694"><defs><linearGradient x1="126.38702" y1="320.07341" x2="250.89258" y2="320.07341" gradientUnits="userSpaceOnUse" id="color-1"><stop offset="0" stop-color="#00ff65"/><stop offset="1" stop-color="#e02626"/></linearGradient><radialGradient cx="188.63892" cy="320.32547" r="57.58095" gradientUnits="userSpaceOnUse" id="color-2"><stop offset="0" stop-color="#00ff65"/><stop offset="1" stop-color="#de2527"/></radialGradient></defs><g transform="translate(-126.14521,-304.03481)"><g stroke="none" stroke-miterlimit="10"><path d="M250.893,320.07297c0,8.8439 -12.16943,16.03878 -27.12573,16.03878h-70.25567c-14.95629,0 -27.12469,-7.19427 -27.12469,-16.03878c0,-8.84329 12.16736,-16.03816 27.12469,-16.03816h70.25567c14.95629,0 27.12573,7.19487 27.12573,16.03816z" fill="url(#color-1)"/><path d="M246.21987,320.32521c0,6.37102 -10.05179,11.53574 -22.4526,11.53574h-70.25567c-12.40081,0 -22.45363,-5.16472 -22.45363,-11.53574v0c0,-6.37048 10.05283,-11.5352 22.45363,-11.5352h70.25567c12.40081,0 22.4526,5.16472 22.4526,11.5352z" fill="url(#color-2)"/><text transform="translate(126.28052,325.86147) scale(0.27062,0.27071)" font-size="40" xml:space="preserve" fill="#000000" font-family="Sans Serif" font-weight="normal" text-anchor="start"><tspan x="0" dy="0">от:10.000 до:10.000.000</tspan></text><text transform="translate(129.75606,314.3915) scale(0.27925,0.22151)" font-size="40" xml:space="preserve" fill="#000000" font-family="Sans Serif" font-weight="normal" text-anchor="start"><tspan x="0" dy="0">ежедневная награда</tspan></text></g></g></svg>