<svg version="1.1" xmlns="http://www.w3.org/2000/svg" xmlns:xlink="http://www.w3.org/1999/xlink" width="286.88999" height="106.86503" viewBox="0,0,286.88999,106.86503"><defs><linearGradient x1="82.97018" y1="301.62039" x2="369.85702" y2="301.62039" gradientUnits="userSpaceOnUse" id="color-1"><stop offset="0" stop-color="#00ff65"/><stop offset="1" stop-color="#f90406"/></linearGradient><linearGradient x1="93.73033" y1="301.61871" x2="359.09403" y2="301.61871" gradientUnits="userSpaceOnUse" id="color-2"><stop offset="0" stop-color="#fb0304"/><stop offset="1" stop-color="#00ff65"/></linearGradient><linearGradient x1="324.02762" y1="303.00414" x2="324.02762" y2="326.27274" gradientTransform="translate(-599.78553,-661.05692) scale(2.06288,2.06288)" gradientUnits="userSpaceOnUse" id="color-3"><stop offset="0" stop-color="#4796cc"/><stop offset="1" stop-color="#f70508"/></linearGradient><linearGradient x1="293.93358" y1="285.56659" x2="294.63681" y2="285.56659" gradientUnits="userSpaceOnUse" id="color-4"><stop offset="0" stop-color="#4697ce"/><stop offset="1" stop-color="#fa0506"/></linearGradient><linearGradient x1="287.54215" y1="296.28717" x2="359.6997" y2="297.54208" gradientUnits="userSpaceOnUse" id="color-5"><stop offset="0" stop-color="#f90507"/><stop offset="1" stop-color="#4796cd"/></linearGradient><linearGradient x1="287.95682" y1="289.61575" x2="359.28503" y2="304.21349" gradientUnits="userSpaceOnUse" id="color-6"><stop offset="0" stop-color="#4697ce"/><stop offset="1" stop-color="#fa0506"/></linearGradient></defs><g transform="translate(-82.96734,-245.98431)"><g stroke-miterlimit="10"><path d="M369.85733,336.72304c0,8.90553 -12.15013,16.12629 -27.12815,16.12629h-232.63685c-14.98117,0 -27.12499,-7.22263 -27.12499,-16.12629v-70.20792c0,-8.90553 12.14383,-16.12441 27.12499,-16.12441h232.6337c14.98747,0 27.12815,7.21888 27.12815,16.12441v70.20792z" fill="url(#color-1)" stroke="none" stroke-width="1" stroke-linecap="butt"/><path d="M359.09119,266.51512v70.20605c0,5.36356 -7.33611,9.72637 -16.36516,9.72637h-232.6337c-9.0196,0 -16.36201,-4.36281 -16.36201,-9.72637v-70.20792c0,-5.36356 7.34241,-9.72637 16.36201,-9.72637h232.6337c9.02905,0 16.36516,4.36469 16.36516,9.72825z" fill="url(#color-2)" stroke="none" stroke-width="1" stroke-linecap="butt"/><text transform="translate(93.98046,299.51408) scale(0.5,0.5)" font-size="40" xml:space="preserve" fill="#000000" stroke="none" stroke-width="1" stroke-linecap="butt" font-family="Sans Serif" font-weight="normal" text-anchor="start"><tspan x="0" dy="0">+5000(ЗА КЛИК)</tspan></text><text transform="translate(93.04281,321.54877) scale(0.5,0.5)" font-size="40" xml:space="preserve" fill="#000000" stroke="none" stroke-width="1" stroke-linecap="butt" font-family="Sans Serif" font-weight="normal" text-anchor="start"><tspan x="0" dy="0">+5000(В СЕК)</tspan></text><text transform="translate(93.98046,342.88023) scale(0.5,0.5)" font-size="40" xml:space="preserve" fill="#000000" stroke="none" stroke-width="1" stroke-linecap="butt" font-family="Sans Serif" font-weight="normal" text-anchor="start"><tspan x="0" dy="0">+10</tspan></text><text transform="translate(128.90779,341.00494) scale(0.5,0.5)" font-size="40" xml:space="preserve" fill="#000000" stroke="none" stroke-width="1" stroke-linecap="butt" font-family="Sans Serif" font-weight="normal" text-anchor="start"><tspan x="0" dy="0">(энергий(В СЕК))</tspan></text><text transform="translate(292.2927,277.13751) scale(0.50931,0.50931)" font-size="40" xml:space="preserve" fill="#000000" stroke="none" stroke-width="1" stroke-linecap="butt" font-family="Sans Serif" font-weight="normal" text-anchor="start"><tspan x="0" dy="0">ЦЕНА:</tspan></text><text transform="translate(290.75204,320.45395) scale(0.48476,0.48476)" font-size="40" xml:space="preserve" fill="url(#color-3)" stroke="none" stroke-width="1" stroke-linecap="butt" font-family="Sans Serif" font-weight="normal" text-anchor="start"><tspan x="0" dy="0">399998</tspan></text><path d="M293.93358,284.74615l0.70323,1.64088" fill="none" stroke="url(#color-4)" stroke-width="0.5" stroke-linecap="round"/><text transform="translate(289.6436,303.03817) scale(0.5,0.5)" font-size="40" xml:space="preserve" fill="#000000" stroke="none" stroke-width="1" stroke-linecap="butt" font-family="Sans Serif" font-weight="normal" text-anchor="start"><tspan x="0" dy="0">400000</tspan></text><text transform="translate(121.74823,277.6771) scale(0.72857,0.72857)" font-size="40" xml:space="preserve" fill="#000000" stroke="none" stroke-width="1" stroke-linecap="butt" font-family="Sans Serif" font-weight="normal" text-anchor="start"><tspan x="0" dy="0">ПРОКАЧКА</tspan></text><path d="M287.63044,291.21048l0.65275,-3.18947l71.32821,14.59774l-0.65275,3.18947z" fill="url(#color-5)" stroke="url(#color-6)" stroke-width="0.5" stroke-linecap="butt"/></g></g></svg>