<svg version="1.1" xmlns="http://www.w3.org/2000/svg" xmlns:xlink="http://www.w3.org/1999/xlink" width="168.65827" height="93.17606" viewBox="0,0,168.65827,93.17606"><defs><linearGradient x1="127.50011" y1="333.5002" x2="247.49958" y2="333.5002" gradientUnits="userSpaceOnUse" id="color-1"><stop offset="0" stop-color="#000000"/><stop offset="1" stop-color="#00ff65"/></linearGradient><linearGradient x1="132.00248" y1="333.5002" x2="242.99571" y2="333.5002" gradientUnits="userSpaceOnUse" id="color-2"><stop offset="0" stop-color="#ff0000"/><stop offset="1" stop-color="#00ff65"/></linearGradient><linearGradient x1="195.18732" y1="323.1133" x2="224.38122" y2="323.1133" gradientTransform="translate(-611.89293,-1072.14264) scale(3.13489,3.28246)" gradientUnits="userSpaceOnUse" id="color-3"><stop offset="0" stop-color="#0059ff"/><stop offset="1" stop-color="#ff0000"/></linearGradient></defs><g transform="translate(-78.84173,-266.46744)"><g stroke-miterlimit="10"><path d="M247.50001,333.4995c0,14.416 -11.729,26.144 -26.144,26.144h-67.713c-14.415,0 -26.143,-11.727 -26.143,-26.144c0,-14.415 11.727,-26.143 26.143,-26.143h67.713c14.415,0 26.144,11.728 26.144,26.143z" fill="url(#color-1)" stroke="none" stroke-width="1" stroke-linecap="butt"/><path d="M242.996,333.4995c0,11.952 -9.688,21.641 -21.64,21.641h-67.713c-11.952,0 -21.641,-9.689 -21.641,-21.641v0c0,-4.96937 1.67522,-9.54764 4.49179,-13.20086c3.95709,-5.13252 10.16699,-8.43914 17.14921,-8.43914h67.713c11.952,0 21.64,9.689 21.64,21.64z" fill="url(#color-2)" stroke="none" stroke-width="1" stroke-linecap="butt"/><text transform="translate(137.45447,325.51707) scale(0.33881,0.31213)" font-size="40" xml:space="preserve" fill="#000000" stroke="#7e0000" stroke-width="1" stroke-linecap="butt" font-family="Sans Serif" font-weight="normal" text-anchor="start"><tspan x="0" dy="0">энергия(_______)</tspan></text><text transform="translate(136.17281,344.70053) scale(0.26558,0.2674)" font-size="40" xml:space="preserve" fill="#000000" stroke="none" stroke-width="1" stroke-linecap="butt" font-family="Sans Serif" font-weight="normal" text-anchor="start"><tspan x="0" dy="0">+2.5 энергий(в сек)</tspan></text><path d="M205.09108,325.43675l34.32058,-10.4157" fill="none" stroke="none" stroke-width="0" stroke-linecap="round"/><path d="M92.04865,288.0467v0" fill="none" stroke="#7e0000" stroke-width="0.5" stroke-linecap="round"/><text transform="translate(195.18773,326.62826) scale(0.31899,0.30465)" font-size="40" xml:space="preserve" fill="url(#color-3)" stroke="none" stroke-width="1" stroke-linecap="butt" font-family="Sans Serif" font-weight="normal" text-anchor="start"><tspan x="0" dy="0">100000</tspan></text><text transform="translate(79.09173,288.21744) scale(0.5,0.5)" font-size="40" xml:space="preserve" fill="#0059ff" stroke="none" stroke-width="1" stroke-linecap="butt" font-family="Sans Serif" font-weight="normal" text-anchor="start"><tspan x="0" dy="0"> </tspan></text></g></g></svg>