<svg version="1.1" xmlns="http://www.w3.org/2000/svg" xmlns:xlink="http://www.w3.org/1999/xlink" width="125.25149" height="31.07694" viewBox="0,0,125.25149,31.07694"><defs><linearGradient x1="127.10074" y1="319.9484" x2="251.64259" y2="319.9484" gradientUnits="userSpaceOnUse" id="color-1"><stop offset="0" stop-color="#00ff65"/><stop offset="1" stop-color="#e02626"/></linearGradient><radialGradient cx="189.37078" cy="320.13797" r="57.59772" gradientUnits="userSpaceOnUse" id="color-2"><stop offset="0" stop-color="#00ff65"/><stop offset="1" stop-color="#de2527"/></radialGradient></defs><g transform="translate(-126.39151,-304.40981)"><g stroke="none" stroke-miterlimit="10"><path d="M251.643,319.94798c0,8.5682 -12.17298,15.53877 -27.13363,15.53877h-70.27614c-14.96065,0 -27.13259,-6.96998 -27.13259,-15.53877c0,-8.5676 12.1709,-15.53817 27.13259,-15.53817h70.27614c14.96065,0 27.13363,6.97057 27.13363,15.53817z" fill="url(#color-1)"/><path d="M246.96851,320.13772c0,6.06035 -10.05472,10.97322 -22.45914,10.97322h-70.27614c-12.40442,0 -22.46018,-4.91287 -22.46018,-10.97322v0c0,-6.05984 10.05576,-10.97272 22.46018,-10.97272h70.27614c12.40442,0 22.45914,4.91287 22.45914,10.97272z" fill="url(#color-2)"/><text transform="translate(126.61921,323.55562) scale(0.4554,0.18049)" font-size="40" xml:space="preserve" fill="#000000" font-family="Sans Serif" font-weight="normal" text-anchor="start"><tspan x="0" dy="0">от:0 до:10.000</tspan></text><text transform="translate(130.34108,316.40812) scale(0.45096,0.22151)" font-size="40" xml:space="preserve" fill="#000000" font-family="Sans Serif" font-weight="normal" text-anchor="start"><tspan x="0" dy="0">сундук(1.000)</tspan></text></g></g></svg>