<svg version="1.1" xmlns="http://www.w3.org/2000/svg" xmlns:xlink="http://www.w3.org/1999/xlink" width="83" height="82.47908" viewBox="0,0,83,82.47908"><defs><linearGradient x1="188.3445" y1="292.68271" x2="188.3445" y2="375.16179" gradientUnits="userSpaceOnUse" id="color-1"><stop offset="0" stop-color="#00ff65"/><stop offset="1" stop-color="#ff0000"/></linearGradient><radialGradient cx="188.3445" cy="333.59452" r="36.92517" gradientUnits="userSpaceOnUse" id="color-2"><stop offset="0" stop-color="#00ff65"/><stop offset="1" stop-color="#050720"/></radialGradient></defs><g transform="translate(-146.8445,-292.68271)"><g stroke="none" stroke-miterlimit="10"><path d="M229.8445,333.92225c0,22.73839 -18.616,41.23954 -41.5,41.23954c-22.883,0 -41.5,-18.50115 -41.5,-41.23954c0,-22.73938 18.616,-41.23954 41.5,-41.23954c22.884,0 41.5,18.50115 41.5,41.23954z" fill="url(#color-1)"/><path d="M151.41933,333.59452c0,-20.26521 16.53197,-36.69342 36.92517,-36.69342c20.39321,0 36.92517,16.42821 36.92517,36.69342c0,20.26521 -16.53197,36.69342 -36.92517,36.69342c-20.39321,0 -36.92517,-16.42821 -36.92517,-36.69342z" fill="url(#color-2)"/></g></g></svg>