<svg version="1.1" xmlns="http://www.w3.org/2000/svg" xmlns:xlink="http://www.w3.org/1999/xlink" width="136.64062" height="70.456" viewBox="0,0,136.64062,70.456"><defs><linearGradient x1="128.5181" y1="330.4307" x2="248.5176" y2="330.4307" gradientUnits="userSpaceOnUse" id="color-1"><stop offset="0" stop-color="#000000"/><stop offset="1" stop-color="#00ff65"/></linearGradient><linearGradient x1="133.0205" y1="330.4307" x2="244.0137" y2="330.4307" gradientUnits="userSpaceOnUse" id="color-2"><stop offset="0" stop-color="#ff0000"/><stop offset="1" stop-color="#00ff65"/></linearGradient></defs><g transform="translate(-128.518,-286.118)"><g stroke="none" stroke-miterlimit="10"><path d="M248.518,330.43c0,14.416 -11.729,26.144 -26.144,26.144h-67.713c-14.415,0 -26.143,-11.727 -26.143,-26.144c0,-14.415 11.727,-26.143 26.143,-26.143h67.713c14.415,0 26.144,11.728 26.144,26.143z" fill="url(#color-1)"/><path d="M244.014,330.43c0,11.952 -9.688,21.641 -21.64,21.641h-67.713c-11.952,0 -21.641,-9.689 -21.641,-21.641v0c0,-4.96937 1.67522,-9.54764 4.49179,-13.20086c3.95709,-5.13252 10.16699,-8.43914 17.14921,-8.43914h67.713c11.952,0 21.64,9.689 21.64,21.64z" fill="url(#color-2)"/><text transform="translate(144.48678,330.69895) scale(0.31135,0.30463)" font-size="40" xml:space="preserve" fill="#000000" font-family="Sans Serif" font-weight="normal" text-anchor="start"><tspan x="0" dy="0">машина(500000)</tspan></text><text transform="translate(259.2055,307.868) scale(0.5,0.5)" font-size="40" xml:space="preserve" fill="#000000" font-family="Sans Serif" font-weight="normal" text-anchor="start"><tspan x="0" dy="0"> </tspan></text><text transform="translate(143.4289,346.68255) scale(0.37942,0.37942)" font-size="40" xml:space="preserve" fill="#000000" font-family="Sans Serif" font-weight="normal" text-anchor="start"><tspan x="0" dy="0">+500(в сек)</tspan></text><text transform="translate(152.94193,321.42768) scale(0.38479,0.38479)" font-size="40" xml:space="preserve" fill="#000000" font-family="Sans Serif" font-weight="normal" text-anchor="start"><tspan x="0" dy="0">майнинг </tspan></text></g></g></svg>